<svg xmlns="http://www.w3.org/2000/svg" xmlns:xlink="http://www.w3.org/1999/xlink" viewBox="0 0 48 48" width="192px" height="192px"><defs><radialGradient id="p5lPUdixuyJVQdb6tsM2Ga" cx="8.46" cy="14.87" r="17.6" fx="8.46" fy="14.87" gradientUnits="userSpaceOnUse"><stop offset="0" stop-color="#f2fcff"/><stop offset=".55" stop-color="#c1f3f9"/><stop offset=".97" stop-color="#baccfd"/></radialGradient><radialGradient id="p5lPUdixuyJVQdb6tsM2Gb" cx="8.58" cy="15.2" r="17.07" fx="8.58" fy="15.2" gradientUnits="userSpaceOnUse"><stop offset="0" stop-color="#effbff"/><stop offset=".55" stop-color="#b3f0f8"/><stop offset=".97" stop-color="#abc1fd"/></radialGradient><radialGradient id="p5lPUdixuyJVQdb6tsM2Gc" cx="8.71" cy="15.53" r="16.51" fx="8.71" fy="15.53" gradientUnits="userSpaceOnUse"><stop offset="0" stop-color="#ecfbff"/><stop offset=".55" stop-color="#a5edf7"/><stop offset=".97" stop-color="#9bb5fc"/></radialGradient><radialGradient id="p5lPUdixuyJVQdb6tsM2Gd" cx="8.83" cy="15.88" r="15.92" fx="8.83" fy="15.88" gradientUnits="userSpaceOnUse"><stop offset="0" stop-color="#eafaff"/><stop offset=".55" stop-color="#98ebf5"/><stop offset=".97" stop-color="#8caafc"/></radialGradient><radialGradient id="p5lPUdixuyJVQdb6tsM2Ge" cx="8.95" cy="16.24" r="15.3" fx="8.95" fy="16.24" gradientUnits="userSpaceOnUse"><stop offset="0" stop-color="#e7f9ff"/><stop offset=".55" stop-color="#8ae8f4"/><stop offset=".97" stop-color="#7c9ffc"/></radialGradient><radialGradient id="p5lPUdixuyJVQdb6tsM2Gf" cx="9.08" cy="16.61" r="14.65" fx="9.08" fy="16.61" gradientUnits="userSpaceOnUse"><stop offset="0" stop-color="#e4f9fe"/><stop offset=".55" stop-color="#7ce5f3"/><stop offset=".97" stop-color="#6d93fb"/></radialGradient><radialGradient id="p5lPUdixuyJVQdb6tsM2Gg" cx="9.2" cy="16.99" r="13.98" fx="9.2" fy="16.99" gradientUnits="userSpaceOnUse"><stop offset="0" stop-color="#e1f8fe"/><stop offset=".55" stop-color="#6ee2f2"/><stop offset=".97" stop-color="#5d88fb"/></radialGradient><radialGradient id="p5lPUdixuyJVQdb6tsM2Gh" cx="9.32" cy="17.38" r="13.27" fx="9.32" fy="17.38" gradientUnits="userSpaceOnUse"><stop offset="0" stop-color="#dff7fe"/><stop offset=".55" stop-color="#61e0f0"/><stop offset=".97" stop-color="#4e7dfb"/></radialGradient><radialGradient id="p5lPUdixuyJVQdb6tsM2Gi" cx="9.44" cy="17.78" r="12.53" fx="9.44" fy="17.78" gradientUnits="userSpaceOnUse"><stop offset="0" stop-color="#dcf7fe"/><stop offset=".55" stop-color="#53ddef"/><stop offset=".97" stop-color="#3e71fa"/></radialGradient><radialGradient id="p5lPUdixuyJVQdb6tsM2Gj" cx="9.57" cy="18.2" r="11.76" fx="9.57" fy="18.2" gradientUnits="userSpaceOnUse"><stop offset="0" stop-color="#d9f6fe"/><stop offset=".55" stop-color="#45daee"/><stop offset=".97" stop-color="#2f66fa"/></radialGradient><radialGradient id="p5lPUdixuyJVQdb6tsM2Gu" cx="34.46" cy="1.87" fx="34.46" fy="1.87" xlink:href="#p5lPUdixuyJVQdb6tsM2Ga"/><radialGradient id="p5lPUdixuyJVQdb6tsM2Gv" cx="34.58" cy="2.2" fx="34.58" fy="2.2" xlink:href="#p5lPUdixuyJVQdb6tsM2Gb"/><radialGradient id="p5lPUdixuyJVQdb6tsM2Gw" cx="34.71" cy="2.53" fx="34.71" fy="2.53" xlink:href="#p5lPUdixuyJVQdb6tsM2Gc"/><radialGradient id="p5lPUdixuyJVQdb6tsM2Gx" cx="34.83" cy="2.88" fx="34.83" fy="2.88" xlink:href="#p5lPUdixuyJVQdb6tsM2Gd"/><radialGradient id="p5lPUdixuyJVQdb6tsM2Gy" cx="34.95" cy="3.24" r="15.3" fx="34.95" fy="3.24" xlink:href="#p5lPUdixuyJVQdb6tsM2Ge"/><radialGradient id="p5lPUdixuyJVQdb6tsM2Gz" cx="35.08" cy="3.61" r="14.65" fx="35.08" fy="3.61" xlink:href="#p5lPUdixuyJVQdb6tsM2Gf"/><radialGradient id="p5lPUdixuyJVQdb6tsM2GA" cx="35.2" cy="3.99" fx="35.2" fy="3.99" xlink:href="#p5lPUdixuyJVQdb6tsM2Gg"/><radialGradient id="p5lPUdixuyJVQdb6tsM2GB" cx="35.32" cy="4.38" r="13.27" fx="35.32" fy="4.38" xlink:href="#p5lPUdixuyJVQdb6tsM2Gh"/><radialGradient id="p5lPUdixuyJVQdb6tsM2GC" cx="35.44" cy="4.78" fx="35.44" fy="4.78" xlink:href="#p5lPUdixuyJVQdb6tsM2Gi"/><radialGradient id="p5lPUdixuyJVQdb6tsM2GD" cx="35.57" cy="5.2" fx="35.57" fy="5.2" xlink:href="#p5lPUdixuyJVQdb6tsM2Gj"/><radialGradient id="p5lPUdixuyJVQdb6tsM2GE" cx="34.46" cy="27.87" fx="34.46" fy="27.87" xlink:href="#p5lPUdixuyJVQdb6tsM2Ga"/><radialGradient id="p5lPUdixuyJVQdb6tsM2GF" cx="34.58" cy="28.2" fx="34.58" fy="28.2" xlink:href="#p5lPUdixuyJVQdb6tsM2Gb"/><radialGradient id="p5lPUdixuyJVQdb6tsM2GG" cx="34.71" cy="28.53" fx="34.71" fy="28.53" xlink:href="#p5lPUdixuyJVQdb6tsM2Gc"/><radialGradient id="p5lPUdixuyJVQdb6tsM2GH" cx="34.83" cy="28.88" fx="34.83" fy="28.88" xlink:href="#p5lPUdixuyJVQdb6tsM2Gd"/><radialGradient id="p5lPUdixuyJVQdb6tsM2GI" cx="34.95" cy="29.24" r="15.3" fx="34.95" fy="29.24" xlink:href="#p5lPUdixuyJVQdb6tsM2Ge"/><radialGradient id="p5lPUdixuyJVQdb6tsM2GJ" cx="35.08" cy="29.61" r="14.65" fx="35.08" fy="29.61" xlink:href="#p5lPUdixuyJVQdb6tsM2Gf"/><radialGradient id="p5lPUdixuyJVQdb6tsM2GK" cx="35.2" cy="29.99" fx="35.2" fy="29.99" xlink:href="#p5lPUdixuyJVQdb6tsM2Gg"/><radialGradient id="p5lPUdixuyJVQdb6tsM2GL" cx="35.32" cy="30.38" r="13.27" fx="35.32" fy="30.38" xlink:href="#p5lPUdixuyJVQdb6tsM2Gh"/><radialGradient id="p5lPUdixuyJVQdb6tsM2GM" cx="35.44" cy="30.78" fx="35.44" fy="30.78" xlink:href="#p5lPUdixuyJVQdb6tsM2Gi"/><radialGradient id="p5lPUdixuyJVQdb6tsM2GN" cx="35.57" cy="31.2" fx="35.57" fy="31.2" xlink:href="#p5lPUdixuyJVQdb6tsM2Gj"/><linearGradient id="p5lPUdixuyJVQdb6tsM2Gk" x1="44.81" x2="16.32" y1="24.2" y2="24.2" gradientUnits="userSpaceOnUse"><stop offset="0" stop-color="#f5f8ff"/><stop offset=".55" stop-color="#bec7f9"/><stop offset=".97" stop-color="#d6b5f3"/></linearGradient><linearGradient id="p5lPUdixuyJVQdb6tsM2Gl" x1="44.68" x2="16.34" y1="24.2" y2="24.2" gradientUnits="userSpaceOnUse"><stop offset="0" stop-color="#f3f7ff"/><stop offset=".55" stop-color="#afbbf8"/><stop offset=".97" stop-color="#cda5f0"/></linearGradient><linearGradient id="p5lPUdixuyJVQdb6tsM2Gm" x1="44.55" x2="16.37" y1="24.2" y2="24.2" gradientUnits="userSpaceOnUse"><stop offset="0" stop-color="#f1f5ff"/><stop offset=".55" stop-color="#a1aef7"/><stop offset=".97" stop-color="#c494ee"/></linearGradient><linearGradient id="p5lPUdixuyJVQdb6tsM2Gn" x1="44.41" x2="16.4" y1="24.2" y2="24.2" gradientUnits="userSpaceOnUse"><stop offset="0" stop-color="#eff4ff"/><stop offset=".55" stop-color="#92a2f5"/><stop offset=".97" stop-color="#bb84eb"/></linearGradient><linearGradient id="p5lPUdixuyJVQdb6tsM2Go" x1="44.28" x2="16.43" y1="24.2" y2="24.2" gradientUnits="userSpaceOnUse"><stop offset="0" stop-color="#edf2ff"/><stop offset=".55" stop-color="#8496f4"/><stop offset=".97" stop-color="#b273e8"/></linearGradient><linearGradient id="p5lPUdixuyJVQdb6tsM2Gp" x1="44.14" x2="16.46" y1="24.2" y2="24.2" gradientUnits="userSpaceOnUse"><stop offset="0" stop-color="#eaf1fe"/><stop offset=".55" stop-color="#7589f3"/><stop offset=".97" stop-color="#a863e6"/></linearGradient><linearGradient id="p5lPUdixuyJVQdb6tsM2Gq" x1="44" x2="16.5" y1="24.2" y2="24.2" gradientUnits="userSpaceOnUse"><stop offset="0" stop-color="#e8effe"/><stop offset=".55" stop-color="#677df2"/><stop offset=".97" stop-color="#9f52e3"/></linearGradient><linearGradient id="p5lPUdixuyJVQdb6tsM2Gr" x1="43.85" x2="16.53" y1="24.2" y2="24.2" gradientUnits="userSpaceOnUse"><stop offset="0" stop-color="#e6eefe"/><stop offset=".55" stop-color="#5871f0"/><stop offset=".97" stop-color="#9642e0"/></linearGradient><linearGradient id="p5lPUdixuyJVQdb6tsM2Gs" x1="43.71" x2="16.57" y1="24.2" y2="24.2" gradientUnits="userSpaceOnUse"><stop offset="0" stop-color="#e4ecfe"/><stop offset=".55" stop-color="#4a64ef"/><stop offset=".97" stop-color="#8d31de"/></linearGradient><linearGradient id="p5lPUdixuyJVQdb6tsM2Gt" x1="43.57" x2="16.6" y1="24.2" y2="24.2" gradientUnits="userSpaceOnUse"><stop offset="0" stop-color="#e2ebfe"/><stop offset=".55" stop-color="#3b58ee"/><stop offset=".97" stop-color="#8421db"/></linearGradient></defs><path fill="url(#p5lPUdixuyJVQdb6tsM2Gk)" d="m38.33,35.5l-11.47-11.47s-.02-.04,0-.06l11.09-11.09c.7-.7.88-1.84.29-2.65-.74-1.03-2.19-1.12-3.05-.26l-12.01,12.01s-.02.01-.03.01h-12.05c-1,0-1.92.68-2.08,1.66-.2,1.25.76,2.34,1.97,2.34h12.15s.02,0,.03.01l12.4,12.4c.39.39.9.59,1.41.59.56,0,1.12-.23,1.52-.7.69-.81.56-2.04-.19-2.8Z"/><path fill="url(#p5lPUdixuyJVQdb6tsM2Gl)" d="m38.22,35.63l-11.56-11.56s-.04-.1,0-.14l11.17-11.17c.65-.65.8-1.69.26-2.43-.68-.94-2-1.01-2.79-.23l-11.99,11.99s-.11.07-.18.07h-12.04c-.92,0-1.76.63-1.9,1.53-.18,1.14.7,2.13,1.81,2.13h12.15c.06,0,.12.02.16.07l12.4,12.4c.36.36.83.54,1.3.54.51,0,1.02-.21,1.39-.64.64-.74.52-1.87-.17-2.57Z"/><path fill="url(#p5lPUdixuyJVQdb6tsM2Gm)" d="m38.11,35.75l-11.65-11.65c-.06-.06-.06-.15,0-.21l11.26-11.26c.59-.59.72-1.54.23-2.22-.62-.84-1.81-.91-2.53-.2l-11.98,11.98c-.09.09-.21.14-.33.14h-12.03c-.84,0-1.6.58-1.73,1.41-.16,1.04.64,1.93,1.65,1.93h12.14c.11,0,.22.04.29.12l12.39,12.39c.33.33.75.49,1.18.49.46,0,.93-.19,1.26-.58.58-.67.48-1.7-.15-2.33Z"/><path fill="url(#p5lPUdixuyJVQdb6tsM2Gn)" d="m38,35.88l-11.74-11.74c-.08-.08-.08-.21,0-.29l11.35-11.35c.53-.53.65-1.4.2-2-.56-.75-1.63-.81-2.27-.17l-11.97,11.97c-.13.13-.3.2-.48.2h-12.03c-.76,0-1.45.53-1.55,1.28-.14.93.58,1.72,1.48,1.72h12.13c.16,0,.31.06.43.18l12.38,12.38c.29.29.68.44,1.06.44.42,0,.83-.17,1.13-.52.53-.6.44-1.53-.13-2.1Z"/><path fill="url(#p5lPUdixuyJVQdb6tsM2Go)" d="m37.89,36.01l-11.82-11.82c-.1-.1-.1-.27,0-.37l11.43-11.43c.48-.48.57-1.25.16-1.78-.5-.66-1.44-.71-2.01-.14l-11.95,11.95c-.17.17-.39.26-.63.26h-12.02c-.68,0-1.29.48-1.38,1.15-.11.82.52,1.52,1.32,1.52h12.12c.21,0,.41.08.56.23l12.38,12.38c.26.26.6.39.94.39.37,0,.74-.15,1-.46.47-.54.4-1.36-.11-1.87Z"/><path fill="url(#p5lPUdixuyJVQdb6tsM2Gp)" d="m37.79,36.14l-11.91-11.91c-.12-.12-.12-.32,0-.45l11.52-11.52c.42-.42.5-1.1.13-1.57-.44-.56-1.26-.6-1.75-.11l-11.94,11.94c-.21.21-.49.32-.78.32h-12.01c-.6,0-1.13.43-1.2,1.02-.09.71.46,1.32,1.15,1.32h12.11c.26,0,.51.1.69.29l12.37,12.37c.23.23.53.34.82.34.32,0,.64-.13.87-.39.42-.47.36-1.19-.09-1.64Z"/><path fill="url(#p5lPUdixuyJVQdb6tsM2Gq)" d="m37.68,36.26l-12-12c-.15-.15-.15-.38,0-.53l11.61-11.61c.36-.36.42-.95.1-1.35-.38-.47-1.07-.5-1.49-.09l-11.93,11.93c-.25.25-.58.38-.93.38h-12.01c-.52,0-.97.38-1.03.89-.07.6.4,1.11.99,1.11h12.1c.31,0,.6.12.82.34l12.37,12.37c.2.2.45.29.71.29.27,0,.54-.11.74-.33.36-.4.32-1.02-.06-1.4Z"/><path fill="url(#p5lPUdixuyJVQdb6tsM2Gr)" d="m37.57,36.39l-12.09-12.09c-.17-.17-.17-.44,0-.6l11.7-11.7c.31-.31.34-.81.07-1.14-.32-.38-.88-.4-1.23-.06l-11.91,11.91c-.29.29-.67.45-1.08.45h-12c-.44,0-.81.33-.85.76-.04.49.34.91.83.91h12.1c.36,0,.7.14.95.4l12.36,12.36c.16.16.38.24.59.24.22,0,.45-.09.61-.27.31-.33.28-.85-.04-1.17Z"/><path fill="url(#p5lPUdixuyJVQdb6tsM2Gs)" d="m37.46,36.52l-12.18-12.18c-.19-.19-.19-.49,0-.68l11.78-11.78c.25-.25.27-.66.03-.92-.26-.29-.7-.3-.97-.03l-11.9,11.9c-.33.33-.77.51-1.23.51h-11.99c-.36,0-.66.27-.68.63-.02.38.28.7.66.7h12.09c.41,0,.8.16,1.09.45l12.35,12.35c.13.13.3.2.47.2s.35-.07.48-.21c.25-.26.24-.68-.02-.94Z"/><path fill="url(#p5lPUdixuyJVQdb6tsM2Gt)" d="m37.35,36.65l-12.27-12.27c-.21-.21-.21-.55,0-.76l11.87-11.87c.2-.2.2-.51,0-.71s-.51-.2-.71,0l-11.89,11.89c-.36.36-.86.57-1.38.57h-11.99c-.28,0-.5.22-.5.5s.22.5.5.5h12.08c.46,0,.9.18,1.22.5l12.35,12.35c.1.1.23.15.35.15s.26-.05.35-.15c.2-.2.2-.51,0-.71Z"/><g><circle cx="11" cy="24" r="7" fill="url(#p5lPUdixuyJVQdb6tsM2Ga)"/><circle cx="11" cy="24" r="6.67" fill="url(#p5lPUdixuyJVQdb6tsM2Gb)"/><circle cx="11" cy="24" r="6.33" fill="url(#p5lPUdixuyJVQdb6tsM2Gc)"/><circle cx="11" cy="24" r="6" fill="url(#p5lPUdixuyJVQdb6tsM2Gd)"/><circle cx="11" cy="24" r="5.67" fill="url(#p5lPUdixuyJVQdb6tsM2Ge)"/><circle cx="11" cy="24" r="5.33" fill="url(#p5lPUdixuyJVQdb6tsM2Gf)"/><circle cx="11" cy="24" r="5" fill="url(#p5lPUdixuyJVQdb6tsM2Gg)"/><circle cx="11" cy="24" r="4.67" fill="url(#p5lPUdixuyJVQdb6tsM2Gh)"/><circle cx="11" cy="24" r="4.33" fill="url(#p5lPUdixuyJVQdb6tsM2Gi)"/><circle cx="11" cy="24" r="4" fill="url(#p5lPUdixuyJVQdb6tsM2Gj)"/></g><g><circle cx="37" cy="11" r="7" fill="url(#p5lPUdixuyJVQdb6tsM2Gu)"/><circle cx="37" cy="11" r="6.67" fill="url(#p5lPUdixuyJVQdb6tsM2Gv)"/><circle cx="37" cy="11" r="6.33" fill="url(#p5lPUdixuyJVQdb6tsM2Gw)"/><circle cx="37" cy="11" r="6" fill="url(#p5lPUdixuyJVQdb6tsM2Gx)"/><circle cx="37" cy="11" r="5.67" fill="url(#p5lPUdixuyJVQdb6tsM2Gy)"/><circle cx="37" cy="11" r="5.33" fill="url(#p5lPUdixuyJVQdb6tsM2Gz)"/><circle cx="37" cy="11" r="5" fill="url(#p5lPUdixuyJVQdb6tsM2GA)"/><circle cx="37" cy="11" r="4.67" fill="url(#p5lPUdixuyJVQdb6tsM2GB)"/><circle cx="37" cy="11" r="4.33" fill="url(#p5lPUdixuyJVQdb6tsM2GC)"/><circle cx="37" cy="11" r="4" fill="url(#p5lPUdixuyJVQdb6tsM2GD)"/></g><g><circle cx="37" cy="37" r="7" fill="url(#p5lPUdixuyJVQdb6tsM2GE)"/><circle cx="37" cy="37" r="6.67" fill="url(#p5lPUdixuyJVQdb6tsM2GF)"/><circle cx="37" cy="37" r="6.33" fill="url(#p5lPUdixuyJVQdb6tsM2GG)"/><circle cx="37" cy="37" r="6" fill="url(#p5lPUdixuyJVQdb6tsM2GH)"/><circle cx="37" cy="37" r="5.67" fill="url(#p5lPUdixuyJVQdb6tsM2GI)"/><circle cx="37" cy="37" r="5.33" fill="url(#p5lPUdixuyJVQdb6tsM2GJ)"/><circle cx="37" cy="37" r="5" fill="url(#p5lPUdixuyJVQdb6tsM2GK)"/><circle cx="37" cy="37" r="4.67" fill="url(#p5lPUdixuyJVQdb6tsM2GL)"/><circle cx="37" cy="37" r="4.33" fill="url(#p5lPUdixuyJVQdb6tsM2GM)"/><circle cx="37" cy="37" r="4" fill="url(#p5lPUdixuyJVQdb6tsM2GN)"/></g></svg>